<svg width="640" height="420" viewBox="0 0 640 420" fill="none" xmlns="http://www.w3.org/2000/svg">
  <rect width="640" height="420" rx="32" fill="#081120"/>
  <rect x="82" y="82" width="476" height="256" rx="28" fill="#0F172A" stroke="#334155"/>
  <rect x="118" y="122" width="404" height="42" rx="14" fill="#111827"/>
  <rect x="118" y="186" width="404" height="42" rx="14" fill="#111827"/>
  <rect x="118" y="250" width="404" height="42" rx="14" fill="#111827"/>
  <circle cx="148" cy="143" r="10" fill="#FBBF24"/>
  <circle cx="148" cy="207" r="10" fill="#38BDF8"/>
  <circle cx="148" cy="271" r="10" fill="#86EFAC"/>
  <rect x="176" y="132" width="174" height="10" rx="5" fill="#E2E8F0" fill-opacity="0.88"/>
  <rect x="176" y="196" width="204" height="10" rx="5" fill="#E2E8F0" fill-opacity="0.88"/>
  <rect x="176" y="260" width="158" height="10" rx="5" fill="#E2E8F0" fill-opacity="0.88"/>
  <rect x="426" y="128" width="72" height="18" rx="9" fill="#3F2A07"/>
  <rect x="410" y="192" width="88" height="18" rx="9" fill="#083344"/>
  <rect x="412" y="256" width="86" height="18" rx="9" fill="#052E16"/>
  <text x="442" y="142" fill="#FDE68A" font-family="Segoe UI, sans-serif" font-size="11">PENDING</text>
  <text x="430" y="206" fill="#BAE6FD" font-family="Segoe UI, sans-serif" font-size="11">AUDITED</text>
  <text x="430" y="270" fill="#BBF7D0" font-family="Segoe UI, sans-serif" font-size="11">PAID OUT</text>
  <path d="M84 350C165 304 271 294 356 320C426 342 500 340 558 300" stroke="url(#g1)" stroke-width="4" stroke-linecap="round"/>
  <defs>
    <linearGradient id="g1" x1="84" y1="350" x2="558" y2="300" gradientUnits="userSpaceOnUse">
      <stop stop-color="#FBBF24"/>
      <stop offset="1" stop-color="#38BDF8"/>
    </linearGradient>
  </defs>
</svg>
